# xmcd
#
# Track frame offsets: 
#        150
#        21631
#        52539
#        66916
#        85238
#        106605
#        132806
#        154956
#        180583
#        198394
#        221912
#        235604
#        262813
#
# Disc length: 3803 seconds
#
# Revision: 0
# Processed by: cddbd v1.5.2PL0 Copyright (c) Steve Scherf et al.
# Submitted via: ExactAudioCopy v0.99pb3
#
DISCID=a90ed90d
DTITLE=J. D. Hill - J. D. Hill
DYEAR=2000
DGENRE=Blues
TTITLE0=Babe You Don't Have To Go
TTITLE1=Meet Me At The Bottom
TTITLE2=My Baby Don't Wear No Drawers
TTITLE3=Ain't Got No Home
TTITLE4=Low Rider
TTITLE5=Blues With A Feeling
TTITLE6=Lost John
TTITLE7=Dust My Broom
TTITLE8=Funky Thang
TTITLE9=Do The Do
TTITLE10=J.D. Shuffle
TTITLE11=Red House
TTITLE12=Killing Floor
EXTD=
EXTT0=
EXTT1=
EXTT2=
EXTT3=
EXTT4=
EXTT5=
EXTT6=
EXTT7=
EXTT8=
EXTT9=
EXTT10=
EXTT11=
EXTT12=
PLAYORDER=
